<?xml version="1.0" encoding="UTF-8"?>
<!-- Generated by Pixelmator Pro 2.4.6 -->
<svg width="36" height="36" viewBox="0 0 36 36" xmlns="http://www.w3.org/2000/svg" xmlns:xlink="http://www.w3.org/1999/xlink">
    <path id="path1" fill="#ffffff" fill-rule="evenodd" stroke="none" d="M 18 3 C 9.705 3 3 9.705 3 18 C 3 26.295 9.705 33 18 33 C 26.295 33 33 26.295 33 18 C 33 9.705 26.295 3 18 3 Z M 18 30 C 11.385 30 6 24.615 6 18 C 6 11.385 11.385 6 18 6 C 24.615 6 30 11.385 30 18 C 30 24.615 24.615 30 18 30 Z M 18 15.885 L 23.385 10.5 L 25.5 12.615 L 20.115 18 L 25.5 23.385 L 23.385 25.5 L 18 20.115 L 12.615 25.5 L 10.5 23.385 L 15.885 18 L 10.5 12.615 L 12.615 10.5 L 18 15.885 Z"/>
</svg>
