<?xml version="1.0" encoding="UTF-8"?>
<!-- Generated by Pixelmator Pro 2.4.6 -->
<svg width="24" height="24" viewBox="0 0 24 24" xmlns="http://www.w3.org/2000/svg" xmlns:xlink="http://www.w3.org/1999/xlink">
    <path id="path1" fill="#ffffff" stroke="none" d="M 20 2 L 4 2 C 2.9 2 2 2.9 2 4 L 2 20 C 2 21.1 2.9 22 4 22 L 20 22 C 21.1 22 22 21.1 22 20 L 22 4 C 22 2.9 21.1 2 20 2 Z M 8 20 L 5 20 C 4.45 20 4 19.549999 4 19 L 4 16 L 8 16 L 8 20 Z M 8 14 L 4 14 L 4 10 L 8 10 L 8 14 Z M 8 8 L 4 8 L 4 5 C 4 4.450001 4.45 4 5 4 L 8 4 L 8 8 Z M 14 20 L 10 20 L 10 16 L 14 16 L 14 20 Z M 14 14 L 10 14 L 10 10 L 14 10 L 14 14 Z M 14 8 L 10 8 L 10 4 L 14 4 L 14 8 Z M 19 20 L 16 20 L 16 16 L 20 16 L 20 19 C 20 19.549999 19.549999 20 19 20 Z M 20 14 L 16 14 L 16 10 L 20 10 L 20 14 Z M 20 8 L 16 8 L 16 4 L 19 4 C 19.549999 4 20 4.450001 20 5 L 20 8 Z"/>
</svg>
