<?xml version="1.0" encoding="UTF-8"?>
<!-- Generated by Pixelmator Pro 2.4.6 -->
<svg width="36" height="36" viewBox="0 0 36 36" xmlns="http://www.w3.org/2000/svg" xmlns:xlink="http://www.w3.org/1999/xlink">
    <path id="path1" fill="#ffffff" fill-rule="evenodd" stroke="none" d="M 22.139999 19.905001 L 30.735001 28.5 L 28.5 30.735001 L 19.905001 22.139999 C 18.299999 23.295 16.365 24 14.25 24 C 8.865 24 4.5 19.635 4.5 14.25 C 4.5 8.865 8.865 4.5 14.25 4.5 C 19.635 4.5 24 8.865 24 14.25 C 24 16.365 23.295 18.299999 22.139999 19.905001 Z M 14.25 7.5 C 10.515 7.5 7.5 10.514999 7.5 14.25 C 7.5 17.985001 10.515 21 14.25 21 C 17.985001 21 21 17.985001 21 14.25 C 21 10.514999 17.985001 7.5 14.25 7.5 Z"/>
</svg>
