<?xml version="1.0" encoding="UTF-8"?>
<!-- Generated by Pixelmator Pro 2.4.6 -->
<svg width="24" height="24" viewBox="0 0 24 24" xmlns="http://www.w3.org/2000/svg" xmlns:xlink="http://www.w3.org/1999/xlink">
    <path id="path1" fill="#ffffff" stroke="none" d="M 4 14 L 6 14 C 6.55 14 7 13.55 7 13 L 7 11 C 7 10.45 6.55 10 6 10 L 4 10 C 3.45 10 3 10.45 3 11 L 3 13 C 3 13.55 3.45 14 4 14 Z M 4 19 L 6 19 C 6.55 19 7 18.549999 7 18 L 7 16 C 7 15.45 6.55 15 6 15 L 4 15 C 3.45 15 3 15.45 3 16 L 3 18 C 3 18.549999 3.45 19 4 19 Z M 4 9 L 6 9 C 6.55 9 7 8.55 7 8 L 7 6 C 7 5.450001 6.55 5 6 5 L 4 5 C 3.45 5 3 5.450001 3 6 L 3 8 C 3 8.55 3.45 9 4 9 Z M 9 14 L 20 14 C 20.549999 14 21 13.55 21 13 L 21 11 C 21 10.45 20.549999 10 20 10 L 9 10 C 8.45 10 8 10.45 8 11 L 8 13 C 8 13.55 8.45 14 9 14 Z M 9 19 L 20 19 C 20.549999 19 21 18.549999 21 18 L 21 16 C 21 15.45 20.549999 15 20 15 L 9 15 C 8.45 15 8 15.45 8 16 L 8 18 C 8 18.549999 8.45 19 9 19 Z M 8 6 L 8 8 C 8 8.55 8.45 9 9 9 L 20 9 C 20.549999 9 21 8.55 21 8 L 21 6 C 21 5.450001 20.549999 5 20 5 L 9 5 C 8.45 5 8 5.450001 8 6 Z"/>
</svg>
